<svg width="646" height="1092" viewBox="0 0 646 1092" fill="none" xmlns="http://www.w3.org/2000/svg">
<path d="M423.643 1000.04L342.745 1085.56L257.652 1004.21" stroke="#D5FCF4" stroke-width="8" stroke-linecap="round" stroke-linejoin="round"/>
<path d="M343.863 1083.74L339.477 909.279C336.45 788.836 229.224 693.837 99.9743 697.086L76.5721 697.675" stroke="#D5FCF4" stroke-width="8" stroke-linecap="round" stroke-linejoin="round"/>
<circle cx="323" cy="550" r="323" fill="#D5FCF5"/>
<g filter="url(#filter0_d_727_58)">
<path d="M493.751 188.933C483.247 206.281 463.915 224.913 454.692 224.904C443.85 228.218 434.685 215.47 435.928 206.608C436.684 201.219 448.214 190.782 454.074 184.097C459.934 177.413 478.993 153.579 477.096 147.373C475.199 141.168 480.109 131.373 482.801 127.252C489.232 123.873 503.043 120.217 506.836 132.628C511.578 148.143 506.15 168.456 493.751 188.933Z" fill="white"/>
<path d="M342.107 129.381C343.057 109.765 350.869 84.3893 358.653 79.4608C366.289 70.9859 379.836 76.3668 382.829 84.1813C384.649 88.9333 379.681 103.523 377.786 112.052C375.891 120.58 370.682 150.007 375.113 153.998C379.544 157.99 379.869 168.519 379.477 173.284C375.593 179.452 365.609 189.791 356.748 181.808C345.671 171.829 340.986 152.536 342.107 129.381Z" fill="white"/>
<path d="M333.83 262.94L387.621 209.135C393.084 205.772 411.403 174.718 409.669 176.797C405.166 182.192 385.4 187.266 376.08 189.128L340.542 198.684L328.052 208.144L344.955 209.514L385.405 194.466L321.624 241.005L314.879 262.058L333.83 262.94Z" fill="white"/>
<path d="M408.169 182.166C379.451 177.437 376.219 210.559 378.193 227.711L383.119 266.048C383.049 277.247 387.596 300.404 414.112 299.347C440.629 298.29 443.804 276.691 442.077 266.024L439.163 215.465C440.798 206.336 436.887 186.896 408.169 182.166Z" fill="white"/>
<circle cx="419.167" cy="150.235" r="38.2859" transform="rotate(-4.66161 419.167 150.235)" fill="white"/>
<path d="M388.543 400.342L408.454 299.277C408.454 295.909 407.336 285.528 397.392 281.952C388.543 278.769 386.727 267.974 385.252 272.787L361.995 388.792C360.152 392.642 353.833 409.858 367.526 414.78C381.798 419.91 385.174 410.116 388.469 400.558L388.543 400.342Z" fill="white"/>
<path d="M438.262 400.342L416.36 299.277C416.36 295.909 418.794 287.727 428.528 281.952C438.262 276.177 441.059 266.778 442.682 271.591L467.465 388.792C469.493 392.642 474.602 407.475 461.381 414.78C449.86 421.145 441.912 409.967 438.262 400.342Z" fill="white"/>
<path d="M469.473 26.2391C457.226 22.2613 452.629 31.3655 451.862 36.4148L456.765 37.7267C457.149 35.202 459.988 28.9556 468.161 31.1424C476.115 33.2707 477.454 40.0514 476.978 44.011L481.882 45.3231C482.848 40.6192 481.72 30.2169 469.473 26.2391Z" fill="white"/>
<rect x="429.664" y="29.6013" width="76.5268" height="55.3605" transform="rotate(16.5048 429.664 29.6013)" fill="white"/>
</g>
<defs>
<filter id="filter0_d_727_58" x="303.879" y="25.2605" width="204.658" height="399.387" filterUnits="userSpaceOnUse" color-interpolation-filters="sRGB">
<feFlood flood-opacity="0" result="BackgroundImageFix"/>
<feColorMatrix in="SourceAlpha" type="matrix" values="0 0 0 0 0 0 0 0 0 0 0 0 0 0 0 0 0 0 127 0" result="hardAlpha"/>
<feOffset dx="-7" dy="4"/>
<feGaussianBlur stdDeviation="2"/>
<feComposite in2="hardAlpha" operator="out"/>
<feColorMatrix type="matrix" values="0 0 0 0 0 0 0 0 0 0 0 0 0 0 0 0 0 0 0.25 0"/>
<feBlend mode="normal" in2="BackgroundImageFix" result="effect1_dropShadow_727_58"/>
<feBlend mode="normal" in="SourceGraphic" in2="effect1_dropShadow_727_58" result="shape"/>
</filter>
</defs>
</svg>
