<svg width="646" height="1201" viewBox="0 0 646 1201" fill="none" xmlns="http://www.w3.org/2000/svg">
<path d="M533.239 1109.12L452.413 1194.56L367.396 1113.29" stroke="#D5FCF4" stroke-width="8" stroke-linecap="round" stroke-linejoin="round"/>
<path d="M453.53 1192.75L449.148 1018.44C446.123 898.106 338.993 803.192 209.859 806.438L186.477 807.026" stroke="#D5FCF4" stroke-width="8" stroke-linecap="round" stroke-linejoin="round"/>
<circle cx="323" cy="550" r="323" fill="#D5FCF5"/>
<g filter="url(#filter0_d_715_88)">
<path d="M493.31 188.765C482.816 206.097 463.501 224.712 454.286 224.704C443.454 228.015 434.297 215.277 435.539 206.423C436.294 201.039 447.814 190.612 453.669 183.933C459.523 177.254 478.565 153.442 476.67 147.242C474.775 141.042 479.68 131.256 482.37 127.138C488.795 123.762 502.594 120.109 506.384 132.51C511.122 148.01 505.699 168.306 493.31 188.765Z" fill="white"/>
<path d="M341.802 129.265C342.751 109.667 350.556 84.3138 358.333 79.3898C365.962 70.9224 379.497 76.2985 382.487 84.1061C384.306 88.8538 379.343 103.431 377.449 111.952C375.556 120.473 370.352 149.873 374.778 153.861C379.205 157.849 379.53 168.368 379.139 173.129C375.258 179.292 365.283 189.622 356.429 181.646C345.363 171.675 340.682 152.4 341.802 129.265Z" fill="white"/>
<path d="M333.533 262.705L387.276 208.948C392.733 205.588 411.037 174.562 409.304 176.639C404.804 182.029 385.056 187.098 375.744 188.959L340.239 198.506L327.76 207.958L344.648 209.327L385.062 194.292L321.337 240.79L314.599 261.824L333.533 262.705Z" fill="white"/>
<path d="M407.805 182.004C379.113 177.279 375.883 210.371 377.855 227.508L382.777 265.811C382.707 277 387.25 300.136 413.743 299.08C440.235 298.024 443.408 276.444 441.682 265.787L438.771 215.273C440.404 206.152 436.498 186.729 407.805 182.004Z" fill="white"/>
<circle cx="418.793" cy="150.101" r="38.2518" transform="rotate(-4.66161 418.793 150.101)" fill="white"/>
<path d="M388.196 399.985L408.089 299.01C408.089 295.645 406.972 285.274 397.038 281.7C388.196 278.52 386.382 267.735 384.909 272.544L361.672 388.445C359.83 392.291 353.517 409.492 367.198 414.409C381.458 419.535 384.83 409.75 388.122 400.201L388.196 399.985Z" fill="white"/>
<path d="M437.871 399.985L415.988 299.01C415.988 295.645 418.419 287.47 428.145 281.701C437.871 275.931 440.665 266.54 442.286 271.348L467.047 388.445C469.073 392.291 474.178 407.111 460.969 414.41C449.458 420.769 441.518 409.601 437.871 399.985Z" fill="white"/>
<path d="M469.053 26.2153C456.817 22.241 452.225 31.3371 451.458 36.3819L456.357 37.6926C456.741 35.1702 459.577 28.9293 467.742 31.1142C475.689 33.2406 477.027 40.0152 476.552 43.9713L481.451 45.2823C482.417 40.5825 481.29 30.1895 469.053 26.2153Z" fill="white"/>
<rect x="429.28" y="29.5747" width="76.4585" height="55.3111" transform="rotate(16.5048 429.28 29.5747)" fill="white"/>
</g>
<defs>
<filter id="filter0_d_715_88" x="303.599" y="25.2375" width="204.485" height="399.038" filterUnits="userSpaceOnUse" color-interpolation-filters="sRGB">
<feFlood flood-opacity="0" result="BackgroundImageFix"/>
<feColorMatrix in="SourceAlpha" type="matrix" values="0 0 0 0 0 0 0 0 0 0 0 0 0 0 0 0 0 0 127 0" result="hardAlpha"/>
<feOffset dx="-7" dy="4"/>
<feGaussianBlur stdDeviation="2"/>
<feComposite in2="hardAlpha" operator="out"/>
<feColorMatrix type="matrix" values="0 0 0 0 0 0 0 0 0 0 0 0 0 0 0 0 0 0 0.25 0"/>
<feBlend mode="normal" in2="BackgroundImageFix" result="effect1_dropShadow_715_88"/>
<feBlend mode="normal" in="SourceGraphic" in2="effect1_dropShadow_715_88" result="shape"/>
</filter>
</defs>
</svg>
