<svg width="646" height="708" viewBox="0 0 646 708" fill="none" xmlns="http://www.w3.org/2000/svg">
<path d="M519.553 116.833C504.461 127.95 481.078 137.343 472.863 134.417C462.107 133.745 458.153 120.231 462.188 113.247C464.643 109.001 478.366 103.961 485.796 100.251C493.227 96.5407 518.085 82.7318 518.445 76.9654C518.806 71.199 526.417 64.5995 530.177 62.0205C537.025 61.2425 550.539 62.5697 549.818 74.1024C548.917 88.5183 537.368 103.711 519.553 116.833Z" fill="white"/>
<path d="M466.746 59.7284C483.352 68.4231 502.041 85.3256 503.011 93.9922C507.12 103.955 496.706 113.431 488.659 112.863C483.767 112.518 473.223 102.391 466.632 97.3377C460.041 92.2844 436.736 75.9906 431.395 78.1934C426.054 80.3961 416.786 76.4465 412.82 74.1963C409.121 68.3824 404.392 55.653 415.074 51.2475C428.427 45.7406 447.144 49.4649 466.746 59.7284Z" fill="white"/>
<path d="M538.98 143.159C521.758 150.558 496.853 154.394 489.517 149.679C479.195 146.582 478.413 132.523 483.929 126.639C487.284 123.06 501.793 121.269 509.872 119.343C517.951 117.418 545.296 109.615 546.957 104.081C548.617 98.5475 557.528 93.8489 561.776 92.1914C568.621 92.9888 581.481 97.3505 578.16 108.418C574.008 122.253 559.31 134.425 538.98 143.159Z" fill="white"/>
<circle cx="323" cy="385" r="323" fill="#D5FCF5"/>
<g filter="url(#filter0_d_715_59)">
<path d="M343.292 83.5429C353.531 67.8947 372.134 50.9418 380.848 50.7819C391.152 47.6324 399.581 58.8263 398.246 66.7455C397.434 71.561 386.351 81.0703 380.693 87.133C375.035 93.1958 356.595 114.779 358.275 120.274C359.954 125.77 355.138 134.586 352.52 138.307C346.382 141.435 333.267 144.943 329.907 133.952C325.708 120.214 331.205 102.015 343.292 83.5429Z" fill="white"/>
<path d="M469.27 124.169C464.967 142.412 453.23 164.71 445.075 167.8C436.443 174.253 424.68 166.515 423.233 158.58C422.354 153.754 429.549 141.028 432.809 133.389C436.069 125.751 446.071 99.1314 442.612 94.5037C439.153 89.876 440.68 79.9185 441.875 75.5182C446.59 70.4917 457.748 62.7525 464.666 72.0079C473.314 83.5772 474.349 102.633 469.27 124.169Z" fill="white"/>
<path d="M315.505 39.7495L377.542 50.3058C382.399 52.3121 412.271 50.2465 410.035 50.0587C404.229 49.5712 391.529 39.1559 385.904 34.0091L362.772 15.4759L350.451 11.676L357.39 23.1216L386.585 42.3616L324.881 22.1689L307.275 27.208L315.505 39.7495Z" fill="white"/>
<circle cx="424.158" cy="46.5046" r="38.3095" transform="rotate(-4.66161 424.158 46.5046)" fill="white"/>
<path d="M339.456 131.187C327.201 127.207 322.602 136.317 321.835 141.369L326.741 142.682C327.125 140.156 329.966 133.905 338.143 136.093C346.102 138.223 347.442 145.008 346.966 148.97L351.873 150.283C352.84 145.576 351.711 135.167 339.456 131.187Z" fill="white"/>
<rect x="299.622" y="134.551" width="76.5739" height="55.3945" transform="rotate(16.5048 299.622 134.551)" fill="white"/>
</g>
<defs>
<filter id="filter0_d_715_59" x="272.885" y="8.19312" width="199.45" height="209.225" filterUnits="userSpaceOnUse" color-interpolation-filters="sRGB">
<feFlood flood-opacity="0" result="BackgroundImageFix"/>
<feColorMatrix in="SourceAlpha" type="matrix" values="0 0 0 0 0 0 0 0 0 0 0 0 0 0 0 0 0 0 127 0" result="hardAlpha"/>
<feOffset dx="-7" dy="4"/>
<feGaussianBlur stdDeviation="2"/>
<feComposite in2="hardAlpha" operator="out"/>
<feColorMatrix type="matrix" values="0 0 0 0 0 0 0 0 0 0 0 0 0 0 0 0 0 0 0.25 0"/>
<feBlend mode="normal" in2="BackgroundImageFix" result="effect1_dropShadow_715_59"/>
<feBlend mode="normal" in="SourceGraphic" in2="effect1_dropShadow_715_59" result="shape"/>
</filter>
</defs>
</svg>
