<svg width="816" height="675" viewBox="0 0 816 675" fill="none" xmlns="http://www.w3.org/2000/svg">
<path d="M809.996 97.7052L738.887 35.3576L670.999 101.199" stroke="#D5FCF4" stroke-width="8" stroke-linecap="round" stroke-linejoin="round"/>
<path d="M739.895 36.7075L743.264 170.728C745.59 263.253 659.742 340.46 551.51 343.18L531.914 343.673" stroke="#D5FCF4" stroke-width="8" stroke-linecap="round" stroke-linejoin="round"/>
<circle cx="323" cy="323" r="323" fill="#D5FCF5"/>
<g filter="url(#filter0_d_715_110)">
<circle cx="621.497" cy="436.725" r="29.6411" fill="white"/>
<path d="M540.91 452.472L583.519 461.735L569.625 464.514C544.43 471.183 527.633 494.463 522.384 505.27C520.532 509.593 519.049 518.979 527.942 521.943C536.834 524.907 542.145 519.473 543.689 516.386C545.912 504.529 561.906 493.537 569.625 489.523L556.657 531.206C553.693 537.134 552.952 544.792 552.952 547.879L543.689 577.52H503.858C501.388 578.447 496.263 582.152 495.522 589.562C494.781 596.972 500.771 600.677 503.858 601.604H550.173C559.065 601.604 562.523 597.281 563.141 595.12L573.33 569.184C575.553 566.22 577.344 567.949 577.961 569.184L591.856 589.562C594.82 591.785 594.943 594.811 594.634 596.046C590.62 610.249 582.037 641.063 579.814 650.697C577.591 660.33 584.445 664.591 588.15 665.517C599.266 668.481 604.515 661.812 605.75 658.107C610.999 638.964 621.682 599.566 622.423 595.12C623.164 590.674 620.879 585.239 619.644 583.078L603.897 558.068L619.644 509.902L625.202 511.754C650.397 524.352 672.134 513.915 679.853 507.123C681.705 504.035 684.299 496.563 679.853 491.376C675.406 486.189 668.737 487.979 665.958 489.523C645.21 501.38 630.142 490.141 625.202 483.039C624.461 474.888 614.873 466.652 613.16 466.366C608.714 465.625 599.575 456.795 595.561 452.472L578.888 436.725L569.625 433.02L574.256 442.283L595.561 458.956L549.246 439.504L535.352 442.283L540.91 452.472Z" fill="white"/>
<path d="M530.721 513.607C524.051 506.197 517.444 510.519 514.974 513.607L517.753 516.386C518.988 514.842 523.31 511.754 527.942 516.386C532.449 520.893 530.721 525.957 528.868 528.427L531.647 531.206C534.117 528.427 537.39 521.017 530.721 513.607Z" fill="white"/>
<rect x="502.732" y="500.442" width="59.2473" height="42.8603" transform="rotate(46.5245 502.732 500.442)" fill="white"/>
</g>
<defs>
<filter id="filter0_d_715_110" x="460.63" y="407.084" width="221.677" height="267.172" filterUnits="userSpaceOnUse" color-interpolation-filters="sRGB">
<feFlood flood-opacity="0" result="BackgroundImageFix"/>
<feColorMatrix in="SourceAlpha" type="matrix" values="0 0 0 0 0 0 0 0 0 0 0 0 0 0 0 0 0 0 127 0" result="hardAlpha"/>
<feOffset dx="-7" dy="4"/>
<feGaussianBlur stdDeviation="2"/>
<feComposite in2="hardAlpha" operator="out"/>
<feColorMatrix type="matrix" values="0 0 0 0 0 0 0 0 0 0 0 0 0 0 0 0 0 0 0.25 0"/>
<feBlend mode="normal" in2="BackgroundImageFix" result="effect1_dropShadow_715_110"/>
<feBlend mode="normal" in="SourceGraphic" in2="effect1_dropShadow_715_110" result="shape"/>
</filter>
</defs>
</svg>
