<svg width="763" height="1016" viewBox="0 0 763 1016" fill="none" xmlns="http://www.w3.org/2000/svg">
<path d="M246.115 973.083L131.814 944.767L160.733 830.617" stroke="#D5FCF4" stroke-width="8" stroke-linecap="round" stroke-linejoin="round"/>
<path d="M133.948 944.845L283.683 855.107C387.056 793.154 416.96 653.011 350.477 542.079L338.439 521.994" stroke="#D5FCF4" stroke-width="8" stroke-linecap="round" stroke-linejoin="round"/>
<ellipse cx="440" cy="427.501" rx="323" ry="322.501" fill="#D5FCF5"/>
<g filter="url(#filter0_d_715_71)">
<ellipse cx="31.6556" cy="30.4223" rx="31.6556" ry="30.4223" transform="matrix(-1 0 0 1 501.569 0)" fill="white"/>
<path d="M555.976 46.584L510.471 56.0909L525.31 58.943C552.217 65.788 570.155 89.6822 575.761 100.774C577.74 105.21 579.322 114.844 569.826 117.886C560.329 120.928 554.657 115.351 553.009 112.182C550.635 100.013 533.554 88.7315 525.31 84.6118L539.159 127.393C542.325 133.478 543.116 141.337 543.116 144.506L553.009 174.928H595.546C598.184 175.879 603.658 179.681 604.449 187.287C605.24 194.893 598.843 198.695 595.546 199.646H546.084C536.587 199.646 532.894 195.209 532.235 192.991L521.353 166.372C518.979 163.329 517.066 165.104 516.407 166.372L501.568 187.287C498.403 189.569 498.271 192.674 498.601 193.942C502.887 208.519 512.054 240.146 514.428 250.033C516.803 259.92 509.482 264.293 505.525 265.244C493.654 268.286 488.049 261.441 486.73 257.638C481.124 237.991 469.715 197.554 468.924 192.991C468.132 188.428 470.572 182.85 471.891 180.632L488.708 154.963L471.891 105.527L465.956 107.429C439.049 120.358 415.835 109.647 407.591 102.675C405.612 99.506 402.843 91.8371 407.591 86.5132C412.339 81.1893 419.462 83.0273 422.429 84.6118C444.588 96.7807 460.68 85.2456 465.956 77.9569C466.747 69.5908 476.987 61.1374 478.816 60.8444C483.564 60.0839 493.325 51.0206 497.611 46.584L515.418 30.4222L525.31 26.6194L520.364 36.1263L497.611 53.2389L547.073 33.2743L561.912 36.1263L555.976 46.584Z" fill="white"/>
<path d="M566.858 109.33C573.98 101.724 581.037 106.161 583.675 109.33L580.707 112.182C579.388 110.597 574.772 107.428 569.826 112.182C565.012 116.808 566.858 122.006 568.836 124.541L565.869 127.393C563.231 124.541 559.735 116.936 566.858 109.33Z" fill="white"/>
<rect width="61.9879" height="44.9377" transform="matrix(-0.702318 0.711864 0.739159 0.673531 596.749 95.8179)" fill="white"/>
</g>
<defs>
<filter id="filter0_d_715_71" x="393.969" y="0" width="235.996" height="274.002" filterUnits="userSpaceOnUse" color-interpolation-filters="sRGB">
<feFlood flood-opacity="0" result="BackgroundImageFix"/>
<feColorMatrix in="SourceAlpha" type="matrix" values="0 0 0 0 0 0 0 0 0 0 0 0 0 0 0 0 0 0 127 0" result="hardAlpha"/>
<feOffset dx="-7" dy="4"/>
<feGaussianBlur stdDeviation="2"/>
<feComposite in2="hardAlpha" operator="out"/>
<feColorMatrix type="matrix" values="0 0 0 0 0 0 0 0 0 0 0 0 0 0 0 0 0 0 0.25 0"/>
<feBlend mode="normal" in2="BackgroundImageFix" result="effect1_dropShadow_715_71"/>
<feBlend mode="normal" in="SourceGraphic" in2="effect1_dropShadow_715_71" result="shape"/>
</filter>
</defs>
</svg>
